<svg width="50" height="50" viewBox="0 0 50 50" fill="none" xmlns="http://www.w3.org/2000/svg">
<path d="M45.9791 15.4169L29.9662 15.0742" stroke="#4FC091" stroke-width="3"/>
<path d="M45.2294 15.1875C45.0357 14.9922 44.8053 14.8372 44.5514 14.7315C44.2975 14.6257 44.0252 14.5713 43.7502 14.5713C43.4752 14.5713 43.2029 14.6257 42.949 14.7315C42.6951 14.8372 42.4647 14.9922 42.271 15.1875L29.1669 28.3125L20.2294 19.3542C20.0357 19.1589 19.8053 19.0039 19.5514 18.8981C19.2975 18.7924 19.0252 18.7379 18.7502 18.7379C18.4752 18.7379 18.2029 18.7924 17.949 18.8981C17.6951 19.0039 17.4647 19.1589 17.271 19.3542L4.77103 31.8542C4.57576 32.0478 4.42078 32.2783 4.31501 32.5321C4.20924 32.786 4.15479 33.0583 4.15479 33.3333C4.15479 33.6084 4.20924 33.8807 4.31501 34.1345C4.42078 34.3884 4.57576 34.6188 4.77103 34.8125C4.9647 35.0078 5.19512 35.1628 5.449 35.2685C5.70287 35.3743 5.97517 35.4287 6.2502 35.4287C6.52522 35.4287 6.79753 35.3743 7.0514 35.2685C7.30527 35.1628 7.53569 35.0078 7.72936 34.8125L18.7502 23.7708L27.6877 32.7292C27.8814 32.9244 28.1118 33.0794 28.3657 33.1852C28.6195 33.291 28.8918 33.3454 29.1669 33.3454C29.4419 33.3454 29.7142 33.291 29.9681 33.1852C30.2219 33.0794 30.4524 32.9244 30.646 32.7292L45.2294 18.1458C45.4246 17.9522 45.5796 17.7217 45.6854 17.4679C45.7912 17.214 45.8456 16.9417 45.8456 16.6667C45.8456 16.3916 45.7912 16.1193 45.6854 15.8655C45.5796 15.6116 45.4246 15.3812 45.2294 15.1875V15.1875Z" fill="#4FC091"/>
<line x1="44.7383" y1="15.7911" x2="45.2604" y2="30.0994" stroke="#4FC091" stroke-width="3"/>
</svg>
