<svg width="50" height="50" viewBox="0 0 50 50" fill="none" xmlns="http://www.w3.org/2000/svg">
<path d="M22.9166 4.16666C18.7962 4.16666 14.7682 5.38852 11.3422 7.67771C7.91619 9.96691 5.24593 13.2206 3.6691 17.0274C2.09228 20.8342 1.67971 25.0231 2.48357 29.0644C3.28743 33.1056 5.27161 36.8178 8.1852 39.7314C11.0988 42.645 14.8109 44.6292 18.8522 45.433C22.8935 46.2369 27.0824 45.8243 30.8892 44.2475C34.696 42.6707 37.9497 40.0004 40.2389 36.5744C42.5281 33.1484 43.7499 29.1204 43.7499 25C43.7499 22.2641 43.2111 19.555 42.1641 17.0274C41.1171 14.4998 39.5825 12.2032 37.648 10.2686C35.7134 8.33405 33.4168 6.79948 30.8892 5.75251C28.3616 4.70553 25.6525 4.16666 22.9166 4.16666V4.16666ZM22.9166 41.6667C19.6202 41.6667 16.3979 40.6892 13.6571 38.8578C10.9163 37.0265 8.78006 34.4235 7.5186 31.3781C6.25714 28.3326 5.92709 24.9815 6.57017 21.7485C7.21326 18.5155 8.80061 15.5458 11.1315 13.2149C13.4624 10.884 16.4321 9.29666 19.6651 8.65358C22.8981 8.01049 26.2492 8.34055 29.2947 9.60201C32.3401 10.8635 34.9431 12.9997 36.7744 15.7405C38.6058 18.4813 39.5833 21.7036 39.5833 25C39.5833 29.4203 37.8273 33.6595 34.7017 36.7851C31.5761 39.9107 27.3369 41.6667 22.9166 41.6667V41.6667ZM29.3749 26.3125L24.9999 23.7917V14.5833C24.9999 14.0308 24.7804 13.5009 24.3897 13.1102C23.999 12.7195 23.4691 12.5 22.9166 12.5C22.3641 12.5 21.8342 12.7195 21.4435 13.1102C21.0528 13.5009 20.8333 14.0308 20.8333 14.5833V25C20.8333 25 20.8333 25.1667 20.8333 25.25C20.8456 25.3935 20.8808 25.5342 20.9374 25.6667C20.9803 25.7903 21.0362 25.909 21.1041 26.0208C21.1611 26.1392 21.231 26.251 21.3124 26.3542L21.6458 26.625L21.8333 26.8125L27.2499 29.9375C27.5674 30.1175 27.9266 30.2109 28.2916 30.2083C28.7529 30.2116 29.2022 30.0616 29.5691 29.782C29.9359 29.5023 30.1996 29.1088 30.3188 28.6632C30.438 28.2175 30.4058 27.745 30.2275 27.3195C30.0491 26.8941 29.7346 26.5399 29.3333 26.3125H29.3749Z" fill="#523C8F"/>
</svg>
